<svg xmlns="http://www.w3.org/2000/svg" viewBox="0 0 1000 1000"><title>Oxygen-Aerospace_logo_icon_svg</title><path d="M179.06,570.93,125.39,771.24l53.67-200.31ZM311.2,77.79l-82.55,308.1L311.2,77.79ZM216,580.79a38.18,38.18,0,0,0-73.78-19.71L88.5,761.38a38.18,38.18,0,0,0,73.78,19.71L216,580.79ZM653,639.86a38.18,38.18,0,1,0-73.78-19.72l-88.9,331.8a38.18,38.18,0,0,0,73.78,19.72L653,639.86ZM791.37,123.53a38.19,38.19,0,1,0-73.78-19.72l-77,287.55a38.18,38.18,0,1,0,73.78,19.71l77-287.55Zm207,354.21A38.18,38.18,0,0,0,924.6,458L846.72,748.7a38.18,38.18,0,1,0,73.78,19.71l77.89-290.68ZM348.09,87.65a38.18,38.18,0,0,0-73.78-19.71L191.76,376a38.18,38.18,0,1,0,73.78,19.71Z" fill="#39f" fill-rule="evenodd"/><path d="M371.32,564.37a38.18,38.18,0,1,0-73.78-19.71l-88.91,331.8a38.18,38.18,0,0,0,73.78,19.71l88.9-331.81Zm408,167.37A38.19,38.19,0,0,0,705.58,712L651.91,912.35a38.18,38.18,0,1,0,73.78,19.71l53.68-200.31ZM911.5,238.61a38.19,38.19,0,0,0-73.78-19.72L755.16,527a38.19,38.19,0,0,0,73.78,19.72L911.5,238.61ZM656.6,63.11A38.18,38.18,0,0,0,582.81,43.4L570.62,88.89A38.18,38.18,0,1,0,644.4,108.6L656.6,63.11ZM153.27,251.3A38.18,38.18,0,1,0,79.5,231.58L1.61,522.25A38.18,38.18,0,0,0,75.39,542L153.27,251.3ZM509.67,48a38.18,38.18,0,0,0-73.78-19.71L358.83,315.89a38.18,38.18,0,1,0,73.78,19.71Z" fill="#39f"/><path d="M490.78,386.87c-105.54,23.75-209.94,52.28-314.67,79.36-12.94,11.54-22.86,35.06-16.6,36.76,23.71,6.45,272.58-31.89,297.5,9.89l-113.61,424a38.18,38.18,0,1,0,73.77,19.71l113.6-423.94c42.47-23.72,238.83,133.92,262.59,140.18,6.28,1.66,9.44-23.67,4-40.13C720.22,556.88,644.07,480,564.55,406.63l52-194a38.18,38.18,0,1,0-73.78-19.71Z" fill="#0039a9"/></svg>